<?xml version="1.0" encoding="utf-8"?>
<!-- Generator: Adobe Illustrator 24.0.1, SVG Export Plug-In . SVG Version: 6.00 Build 0)  -->
<svg version="1.1" id="Layer_1" xmlns="http://www.w3.org/2000/svg" xmlns:xlink="http://www.w3.org/1999/xlink" x="0px" y="0px"
	 viewBox="0 0 2000 550" style="enable-background:new 0 0 2000 550;" xml:space="preserve">
<style type="text/css">
	.st0{fill:#D6C59E;}
</style>
<g>
	<g>
		<g>
			<path class="st0" d="M338.71,188.11l-0.48-9.27h52.2c0,2.77,0.1,126.99-0.05,182.76c-0.06,23.52,11.42,26.36,30.08,26.36v9.93
				h-52.99v-10.59c0-2.61-2.96-4.13-5.09-2.63c-4.82,3.38-9.16,6.46-13.68,9.27c-40.05,24.9-87.57,2.18-90.41-44.77
				c-2.47-40.87-1.48-81.95-2.04-122.93c-0.33-24.44,2.68-36.82-27.11-38.7l-0.51-8.71H281c0,3.39-0.28,105.23,0.22,149.73
				c0.13,11.39,1.49,23.08,4.47,34.04c4.01,14.78,14.93,23.8,30.03,26.68c15.59,2.98,31.13-3.72,40.55-16.49
				c7.25-9.83,11.25-20.89,11.26-33.26c0.02-39.41-0.01-78.83-0.04-118.24c0-2.41-0.01-4.83-0.18-7.24
				c-1.03-14.31-5.74-24.92-20.25-25.41C344.44,188.55,341.82,188.31,338.71,188.11z"/>
			<path class="st0" d="M1370.33,188.11l-0.48-9.27h52.2c0,2.77,0.1,126.99-0.05,182.76c-0.06,23.52,11.42,26.36,30.08,26.36v9.93
				h-52.99v-10.59c0-2.61-2.96-4.13-5.09-2.63c-4.82,3.38-9.16,6.46-13.68,9.27c-40.05,24.9-87.57,2.18-90.41-44.77
				c-2.47-40.87-1.48-81.95-2.04-122.93c-0.33-24.44,2.68-36.82-27.11-38.7l-0.51-8.71h52.36c0,3.39-0.28,105.23,0.22,149.73
				c0.13,11.39,1.49,23.08,4.47,34.04c4.01,14.78,14.93,23.8,30.03,26.68c15.59,2.98,31.13-3.72,40.55-16.49
				c7.25-9.83,11.25-20.89,11.26-33.26c0.02-39.41-0.01-78.83-0.04-118.24c0-2.41-0.01-4.83-0.18-7.24
				c-1.03-14.31-5.74-24.92-20.25-25.41C1376.05,188.55,1373.43,188.31,1370.33,188.11z"/>
			<path class="st0" d="M565.56,169.11c0-5.06,0-10.03,0-13.65c3.35,0,6.49,0,9.68,0c0,42.11,0,83.74,0,126.02c-2.92,0-6.07,0-9.5,0
				v-49.6c0-11.02-5.54-24.52-14.58-30.17c-71-44.34-114.68,27.18-114.68,87.62s39.55,97.94,74.5,97.94
				c30.62,0,51.56-17.65,72.84-38.11l8.23,7.71c-34.04,38.99-62.77,53.87-103.08,42.79c-45.01-13.1-71.2-44.73-77.43-92.57
				c-6.04-46.36,7.73-83.99,41.28-110.97s59.37-27.29,98.29-15.57C559.8,183.16,565.56,182.39,565.56,169.11z"/>
			<path class="st0" d="M1782.14,169.11c0-5.06,0-10.03,0-13.65c3.35,0,6.49,0,9.68,0c0,42.11,0,83.74,0,126.02
				c-2.92,0-6.07,0-9.5,0v-49.6c0-11.02-5.54-24.52-14.58-30.17c-71-44.34-114.68,27.18-114.68,87.62s39.55,97.94,74.5,97.94
				c30.62,0,51.56-17.65,72.84-38.11l8.23,7.71c-34.04,38.99-62.77,53.87-103.08,42.79c-45.01-13.1-71.2-44.73-77.43-92.57
				c-6.04-46.36,7.73-83.99,41.28-110.97s59.37-27.29,98.29-15.57C1776.38,183.16,1782.14,182.39,1782.14,169.11z"/>
			<path class="st0" d="M900.92,349.16c-21.29,20.46-42.22,38.11-72.84,38.11c-34.95,0-74.5-37.5-74.5-97.94
				c0-15.46,2.91-31.62,8.36-46.4c62.49,0,81.33,0,145.87,0c-0.99-2.88-1.5-4.99-2.4-6.9c-18.61-39.74-42.92-62.04-79.27-62.04
				c-46.21,0-98.87,50.55-98.87,111.84c0,5.4,0.28,10.65,0.86,15.78c0.12,1.84,0.29,3.67,0.52,5.48
				c6.23,47.84,32.42,79.47,77.43,92.57c40.31,11.09,69.04-3.79,103.08-42.79L900.92,349.16z M878.52,229.71
				c-51.61,0-59.7,0-110.59,0C803.33,167.22,852.63,171.37,878.52,229.71z"/>
		</g>
	</g>
	<path class="st0" d="M763.24,387.29c-23.67,4.61-33.9-12.5-45.95-27.16c-13.3-16.17-26.64-32.3-39.96-48.46
		c-10.69-12.97-20.43-24.83-31.34-38.08c24.56-25.62,53.01-57.32,77.58-83.14c2.33-2.45,5.58-3.82,8.96-3.82
		c5,0.01,8.26,0.02,14.85,0.02l0.11-9.47h-75.45v10.35l15.61,0c4.99,0,7.64,5.9,4.3,9.61c-19.28,21.39-42.19,45.32-60.04,65.67
		l-0.01-167.14c0-7.78,6.31-14.09,14.09-14.09h15.03v-9.32h-74.1v9.09c13.28,0,17,6.1,18,13.76c0.83,6.37,0.55,14.11,0.55,43.04
		v239.82c0,5.48-4.44,9.92-9.92,9.92h-11v10.07h83.65v-10.54c-5.77,0-11.07,0.04-16.37-0.01c-15.4-0.15-20.07-10.8-20.23-26.4
		c-0.23-21.99-0.14-37.45-0.14-59.44c0-1.42,0.12-7.51,0.12-7.51c28.4,33.5,54.26,64.82,77.19,92.08
		c6.28,7.46,15.53,11.75,25.28,11.75l28.75,0C763.21,395.81,763.51,389.79,763.24,387.29z"/>
	<path class="st0" d="M994.37,388.19v10.22h-77.39v-9.91h7.28c6.79,0,12.3-5.51,12.3-12.3V222.32c0-3.01-3.73-4.41-5.71-2.15
		l-9.68,11.04c-2.19-1.51-4.25-2.93-7.22-4.98c17.52-21.28,34.67-42.12,52.16-63.37c2.58,1.96,4.59,3.48,7.26,5.51
		c-2.84,4.09-6.46,7.89-8.93,12.08c-3.74,6.35,4.36,12.93,10.04,8.22c16.83-13.97,36.32-17.92,58.88-10.15
		c3.63,1.25,7.42-1.33,7.42-5.17v-13.05h9.84v92.91h-9.02c-0.77-10.28-0.89-20.37-2.41-30.25c-2.22-14.41-7.12-28.02-22.86-32.66
		c-15.48-4.56-28.84,1.28-40.11,11.94c-8.98,8.49-14.1,18.23-13.85,31.55c0.79,42.53,0.29,91.63,0.54,134.17
		c0.1,16.42,4.09,20.08,20.35,20.2C986.66,388.21,990.06,388.19,994.37,388.19z"/>
	<path class="st0" d="M1161.61,482.35v9.93h-100.86v-9.5h18.84c3.69,0,6.69-2.99,6.69-6.69v0c0-88.01,0.04-156.4-0.07-244.41
		c-0.01-8.51-0.51-17.08-1.65-25.51c-1.67-12.42-6.58-16.69-19.02-17.56c-4.52-0.32,0.74-0.05-4.2-0.05v-9.58h53.12v15.12
		c39.99-27.76,97.2-33.7,130.99,18.93c32.75,51.02,20.32,107.77-1.59,146.21c-23.48,41.21-75.96,58.53-128.7,25.02
		c0,17.13-0.74,66.52,0.26,83.08c0.65,10.8,5.95,14.55,17.13,14.94C1142.14,482.61,1151.76,482.35,1161.61,482.35z M1114.95,217.61
		c0,64.28,0,72.52,0,136.24c16.05,21.62,28.21,32.72,59.39,32.62c28.56,0,52.44-16.23,61.25-68.26s4.9-80.63-21.32-111.17
		C1187.26,175.59,1154.39,180.53,1114.95,217.61z"/>
	<path class="st0" d="M1975.69,388c-15.71,1.5-20.43-7.63-20.77-20.7c-0.21-7.97-0.37-15.95-0.45-23.93
		c-0.36-35.62,0.33-71.29-1.3-106.86c-1.78-38.89-39.28-65.17-76.28-54.31c-10.19,2.99-19.49,9-30.13,14.06c0-3.36,0-6.47,0-9.59
		c0-21.57,0.01-43.13,0.01-64.7c-0.02,0-0.05,0-0.07,0V95.66c0-7.78,6.31-14.09,14.09-14.09h15.03v-9.32h-73.36v9.09
		c12.98,0,18.37,5.07,18.37,14.96c0,8.5,0.16,24.61,0.16,27.32c-0.03,0-0.07,0-0.1,0.01v256.53c0,4.44-3.6,8.05-8.05,8.05h-13.63
		v9.92h75.21v-9.03c-28.59-1.14-27.54-7.86-27.88-25.41c-0.87-44.39,0.02-88.81,0.28-133.22c0.06-9.68,2.79-18.35,10.62-24.77
		c14.63-12,39.98-12.49,54.99-1.03c11.49,8.77,16.12,20.99,16.2,34.84c0.27,47.07,0.18,94.14,0.19,141.21c0,0.02,0,0.05,0,0.07
		c-0.01,4.21-3.57,7.56-7.79,7.56h-12.62v9.95H1980c0-3.46,0-6.47,0-9.84C1978.24,388.26,1976.94,387.88,1975.69,388z"/>
	<path class="st0" d="M1523.5,388.57v9.44h-71.62v-10.1h10.33c4.72,0,8.55-3.83,8.55-8.55V224.61c0-3.29-4.05-4.86-6.27-2.43
		l-8.04,8.79c-2.46-1.97-4.81-3.84-7.86-6.28c17.15-20.89,33.94-41.34,51.12-62.28c2.8,2.03,5.07,3.69,7.96,5.79
		c-3.09,6.02-9.24,10.85-10.65,17.56c-0.9,4.32,4.36,7.26,7.77,4.47l1.04-0.85c16.92-13.85,35.68-20.87,57.79-15.58
		c24.41,5.83,36.08,23.17,40.56,46.1c2.18,11.14,3.04,22.67,3.19,34.04c0.43,32.71,0.18,71.98,0.22,104.7c0,3.46,0,6.92,0.24,10.37
		c1.06,15.54,3.96,18.32,19.31,18.77c1.57,0.05,3.13,0.26,5.33,0.45v9.94h-68.06v-9.84l10.65-0.48c3.97-0.18,7.09-3.45,7.08-7.43
		l0-0.43c-0.21-47.08-0.12-100.71-0.97-147.78c-0.29-16.17-3.61-32.06-22.22-41.21c-21.03-10.35-46.82,0.06-55.39,21.87
		c-3.72,9.46-5.87,20.01-6.11,30.03c-0.92,38.82-0.29,84.21-0.41,123.05C1496.99,381.3,1511.22,388.57,1523.5,388.57z"/>
	<path class="st0" d="M215.56,279.34c-19.13-26.37-77.81-91.83-85.64-100.17c-20.71-22.06-32.21-31.64-36.26-53.75
		c-6-32.74,25.05-61.09,56.78-51.03c18.65,5.91,29.23,20.31,30.15,42.5c0.72,17.42,0.54,2.17,0.76,19.61c0.03,2.2,0,4.41,0,6.74
		h9.38V48h-9.42c0,9.44-8.6,16.57-17.87,14.77c-10.29-2-20.4-3-30.85-1.28c-25.61,4.21-44.51,17.71-53.91,41.82
		c-9.2,23.58-6.56,47.44,10.34,66.45c11.83,13.32,45.7,53.76,78.43,91.1c29.8,34,46.18,62.22,49.87,80.35
		c6.96,34.24,3.2,67.87-12.92,89.1c-28.88,38.03-62.41,56.61-112.33,34.73c-26.31-11.53-43.17-32.93-51.16-58.92
		c-2.72-11.32-4.02-23.6-4.02-36.53c0-60.27,41.46-87.34,75.37-78.53c18.11,4.71,32.29,24.57,32.29,46.61
		c0,17.76-2.92,25.86-20.48,35.62c-0.48,0.27-3.99,1.53-3.99,1.53c1.72,12.79,31.28,10.92,39.99-4.44
		c13.04-22.99,7.96-54.55-10.42-72.65c-20.19-19.89-44.03-21.55-68.5-14.8c-36.28,10.02-59.58,33.39-66.71,67.26
		c-7.27,34.51-2.16,69,28.49,100.23c26.99,27.51,57.66,39.83,89.56,37.25c30.53-1.08,61.1-15.84,84.68-46.95
		C253.88,392.29,255.52,334.42,215.56,279.34z"/>
</g>
</svg>
